<svg id="debianLogo" viewBox="0 0 78 97" fill="none" xmlns="http://www.w3.org/2000/svg">
 <path d="M46.252 51.1314C44.7199 51.1531 46.5418 51.9242 48.5419 52.2335C49.0946 51.8003 49.596 51.362 50.0425 50.9355C48.7967 51.2418 47.5298 51.2482 46.252 51.1314Z" fill="#D70751"/>
 <path d="M54.4756 49.0723C55.3882 47.8079 56.0526 46.4227 56.2874 44.9912C56.0827 46.0119 55.5315 46.8935 55.0115 47.8236C52.1474 49.6345 54.7419 46.748 55.01 45.6508C51.9309 49.5442 54.5874 47.9851 54.4756 49.0723Z" fill="#D70751"/>
 <path d="M57.5115 41.1386C57.6961 38.3674 56.9685 39.2434 56.7237 40.301C57.0083 40.4503 57.2352 42.2548 57.5115 41.1386Z" fill="#D70751"/>
 <path d="M40.4421 3.25928C41.2596 3.40664 42.209 3.51968 42.0757 3.71592C42.9697 3.51894 43.1729 3.33725 40.4421 3.25928Z" fill="#D70751"/>
 <path d="M42.0758 3.71582L41.4979 3.83521L42.0357 3.78783L42.0758 3.71582Z" fill="#D70751"/>
 <path d="M67.574 42.1894C67.6658 44.6782 66.8497 45.8855 66.1136 48.0232L64.7898 48.6876C63.7056 50.8015 64.8946 50.03 64.1186 51.7114C62.4264 53.222 58.9844 56.4383 57.8827 56.7319C57.0793 56.7144 58.4283 55.7791 58.6044 55.4124C56.3398 56.9748 56.7866 57.7571 53.3238 58.7066L53.2224 58.4802C44.6792 62.5161 32.8135 54.5173 32.9699 43.6033C32.8785 44.2961 32.7106 44.123 32.5212 44.4032C32.0807 38.7877 35.1034 33.1475 40.2005 30.8445C45.1877 28.365 51.0325 29.3828 54.6045 32.7263C52.6426 30.1446 48.7378 27.4084 44.1098 27.6644C39.5754 27.7364 35.3348 30.6303 33.9193 33.7713C31.5967 35.2405 31.3271 39.4335 30.3149 40.2005C28.9536 50.2523 32.8763 54.5949 39.5122 59.7031C40.5567 60.4105 39.8064 60.5179 39.9479 61.0563C37.7431 60.0195 35.724 58.4537 34.0641 56.5368C34.9452 57.8325 35.8956 59.0913 37.1243 60.0807C35.0458 59.3729 32.2683 55.0206 31.4578 54.8434C35.041 61.2879 45.9963 66.1458 51.733 63.7361C49.0788 63.8342 45.7062 63.7905 42.7236 62.6832C41.4715 62.0363 39.7678 60.6944 40.0716 60.4437C47.901 63.3816 55.9888 62.6691 62.7622 57.2147C64.486 55.8664 66.3684 53.5731 66.9121 53.5414C66.0928 54.7789 67.0522 54.1368 66.4226 55.2288C68.1405 52.4471 65.6768 54.0965 68.1977 50.4247L69.1288 51.7129C68.783 49.4043 71.984 46.6003 71.6594 42.9486C72.393 41.8316 72.4787 44.1499 71.6991 46.7193C72.7807 43.869 71.984 43.4112 72.2622 41.0593C72.5631 41.8495 72.9557 42.6897 73.1581 43.5239C72.4542 40.7698 73.8816 38.8854 74.2345 37.2845C73.8865 37.1297 73.1469 38.5023 72.978 35.2487C73.0021 33.8354 73.3694 34.5081 73.5109 34.1604C73.2346 34.0011 72.5103 32.918 72.0698 30.84C72.3892 30.352 72.9241 32.1059 73.3587 32.1779C73.079 30.5255 72.5976 29.266 72.5775 27.9986C71.3069 25.3315 72.1277 28.3542 71.0974 26.8537C69.745 22.6166 72.2195 25.8699 72.3863 23.9452C74.4365 26.9279 75.6054 31.5511 76.1414 33.4657C75.7317 31.131 75.0706 28.8694 74.2627 26.6813C74.8856 26.9443 73.2602 21.878 75.0724 25.233C73.1373 18.0804 66.7888 11.3967 60.9489 8.26064C61.6635 8.91725 62.5661 9.74213 62.2418 9.87121C59.3376 8.13417 59.8483 7.99911 59.432 7.26527C57.0663 6.29863 56.9107 7.34287 55.3436 7.26676C50.8846 4.89101 50.0255 5.14395 45.9212 3.655L46.1077 4.53136C43.1537 3.54308 42.6664 4.9063 39.4732 4.53472C39.279 4.38213 40.4958 3.98294 41.4983 3.83669C38.642 4.21536 38.7761 3.27148 35.9811 3.94078C36.6701 3.45541 37.3981 3.13419 38.1328 2.72119C35.8035 2.86333 32.5721 4.08255 33.5694 2.97377C29.7678 4.67835 23.0197 7.06866 19.2334 10.6349L19.1141 9.83577C17.3788 11.928 11.5478 16.0841 11.0831 18.7937L10.6192 18.9023C9.71625 20.4379 9.13199 22.1783 8.41588 23.7583C7.23473 25.7792 6.68465 24.5361 6.8529 24.8529C4.53036 29.5831 3.37671 33.5575 2.37979 36.8171C3.08996 37.8833 2.39688 43.2362 2.66542 47.5199C1.49876 68.6767 17.4483 89.2187 34.882 93.9605C37.4374 94.8779 41.2372 94.8425 44.4697 94.9372C40.6559 93.8415 40.163 94.3567 36.4487 93.0554C33.7688 91.7877 33.1812 90.3406 31.2832 88.6863L32.0343 90.0193C28.3122 88.696 29.8692 88.3815 26.841 87.4183L27.6432 86.3662C26.4365 86.2744 24.4475 84.3236 23.9033 83.2431L22.5836 83.2954C20.9976 81.3296 20.1526 79.9142 20.2143 78.8166L19.7879 79.5803C19.3047 78.7465 13.9531 72.2086 16.7296 73.7308C16.2136 73.2566 15.528 72.9597 14.7844 71.6031L15.3497 70.9544C14.0137 69.2281 12.8905 67.0139 12.9759 66.2775C13.6887 67.2445 14.183 67.4247 14.6726 67.5907C11.2989 59.1819 11.1095 67.1273 8.55367 59.0316L9.09448 58.9883C8.67996 58.3608 8.4285 57.6803 8.09533 57.0117L8.33045 54.6565C5.90093 51.8353 7.6511 42.6617 8.00099 37.6304C8.24428 35.5841 10.0286 33.4064 11.3862 29.9909L10.559 29.8476C12.1398 27.0783 19.5851 18.7247 23.0327 19.1545C24.7038 17.047 22.7014 19.147 22.3745 18.6161C26.0435 14.8022 27.1972 15.9218 29.6731 15.2357C32.3437 13.6434 27.3814 15.8565 28.6476 14.6283C33.2633 13.4442 31.9191 11.9362 37.9411 11.3348C38.5762 11.6978 36.4669 11.8955 35.9372 12.3667C39.783 10.4767 48.1086 10.9065 53.5155 13.4154C59.7908 16.3613 66.8397 25.0674 67.1179 33.259L67.4344 33.3445C67.2743 36.6011 67.9306 40.3665 66.7929 43.8257L67.5729 42.1898" fill="#D70751"/>
 <path d="M29.5285 53.2439L29.3138 54.3232C30.3204 55.6973 31.1193 57.1858 32.4052 58.2599C31.4803 56.4457 30.7928 55.6961 29.5285 53.2439Z" fill="#D70751"/>
 <path d="M31.909 53.1501C31.376 52.5581 31.0606 51.8455 30.7074 51.1355C31.045 52.3835 31.7366 53.4557 32.3803 54.5466L31.909 53.1501Z" fill="#D70751"/>
 <path d="M74.0331 43.9539L73.8084 44.5209C73.3957 47.4653 72.5043 50.3786 71.1382 53.0797C72.6462 50.2298 73.623 47.1123 74.0316 43.9539" fill="#D70751"/>
 <path d="M40.7449 2.52104C41.7808 2.13976 43.291 2.31212 44.3901 2.06104C42.9582 2.18191 41.5327 2.25391 40.1246 2.43598L40.7449 2.52104Z" fill="#D70751"/>
 <path d="M4.3757 21.946C4.61416 24.1662 2.71282 25.0277 4.7969 23.5641C5.91379 21.0372 4.36047 22.8664 4.3757 21.946Z" fill="#D70751"/>
 <path d="M1.92695 32.2199C2.40683 30.7399 2.49375 29.8512 2.67723 28.9946C1.35086 30.6981 2.06697 31.0611 1.92695 32.2199Z" fill="#D70751"/>
</svg>
