<svg viewBox="0 0 338 381" fill="none" xmlns="http://www.w3.org/2000/svg" id="face">
    <path d="M170.229 194.015H168.609V192.396H170.229V194.015Z" fill="#2A232B"/>
    <path d="M323.923 354.771C320.367 347.086 310.653 335.698 299.861 332.552C286.52 328.66 256.405 323.957 245.239 321.341C236.287 319.243 218.259 303.054 211.94 297.619C210.807 296.648 209.879 294.642 209.856 293.15C209.631 275.559 216.649 228.827 216.649 228.827H169.419H122.19C122.19 228.827 129.208 275.557 128.98 293.15C128.962 294.642 128.029 296.648 126.899 297.619C120.581 303.054 102.552 319.243 93.6007 321.341C82.4328 323.957 52.318 328.821 38.9786 332.712C28.1831 335.856 18.4724 347.084 14.9166 354.769C8.91239 367.736 7.49393 391.202 7.49393 411.443H169.419H331.344C331.344 391.204 329.924 367.738 323.923 354.771Z" fill="#F0C7B1"/>
    <path d="M265.207 329.316C304.623 335.052 321.21 343.417 326.405 411.446H331.344C331.344 391.206 329.924 367.739 323.923 354.773C320.367 347.088 310.653 335.699 299.861 332.553C286.52 328.662 256.405 323.958 245.239 321.343C236.287 319.245 215.7 301.8 210.193 294.868C215.634 302.485 230.905 320.137 244.285 324.76C250.686 326.972 256.016 327.979 265.207 329.316ZM94.5545 324.76C107.934 320.138 123.204 302.485 128.646 294.868C123.141 301.799 102.554 319.245 93.6007 321.343C82.4344 323.958 52.3196 328.822 38.9786 332.713C28.1863 335.858 18.4724 347.086 14.9166 354.771C8.91563 367.738 7.49554 391.204 7.49554 411.445H12.4343C17.5964 343.851 34.2536 335.044 73.6322 329.315C82.8214 327.979 88.1536 326.972 94.5545 324.76Z" fill="#FFE4D6"/>
    <path d="M162.369 351.276C162.369 351.276 154.153 348.671 150.9 347.424C133.98 340.933 79.0129 336.726 79.0129 336.726C79.0129 336.726 136.908 339.024 149.683 341.226C148.942 333.507 144.798 308.834 144.798 308.834C144.798 308.834 153.136 336.062 155.176 342.931C156.267 346.603 162.369 351.276 162.369 351.276ZM179.855 349.103C179.711 349.222 179.546 349.376 179.366 349.537C179.549 349.4 179.714 349.256 179.855 349.103ZM162.369 351.276C162.369 351.276 167.053 356.121 169.408 356.183C172.5 356.265 177.225 351.489 179.368 349.537C177.319 351.087 172.633 351.79 170.769 351.863C168.616 351.945 162.369 351.276 162.369 351.276ZM196.402 339.101C193.9 339.503 189.3 340.379 189.3 340.379L193.003 316.268C191.957 321.241 185.759 342.518 179.855 349.103C182.948 346.487 189.826 345.232 193.334 344.725C209.908 342.322 209.902 342.324 259.823 336.726C259.823 336.726 212.75 336.475 196.402 339.101Z" fill="#E1AC8F"/>
    <path d="M323.923 354.771C320.367 347.086 310.653 335.698 299.861 332.552C286.52 328.66 256.405 323.957 245.239 321.341C236.287 319.243 218.259 303.054 211.94 297.619C210.807 296.648 209.879 294.642 209.856 293.15C209.631 275.559 216.649 228.827 216.649 228.827H169.419H122.19C122.19 228.827 129.208 275.557 128.98 293.15C128.962 294.642 128.029 296.648 126.899 297.619C120.581 303.054 102.552 319.243 93.6007 321.341C82.4328 323.957 52.318 328.821 38.9786 332.712C28.1831 335.856 18.4724 347.084 14.9166 354.769C8.91239 367.736 7.49393 391.202 7.49393 411.443H169.419H331.344C331.344 391.204 329.924 367.738 323.923 354.771Z" stroke="#C27B55" stroke-width="3.825"/>
    <path d="M184.86 307.947C192.059 305.256 200.442 298.776 208.65 290.832C208.867 278.082 211.77 254.98 213.717 240.785C188.251 237.845 150.585 237.855 125.124 240.807C127.069 255.001 129.969 278.077 130.184 290.82C138.396 298.769 146.783 305.256 153.986 307.949C161.229 310.656 177.617 310.656 184.86 307.947Z" fill="url(#paint0_linear)"/>
    <path d="M1.53283 413.735C-3.18566 374.399 14.5224 337.485 57.3904 325.306C69.972 321.731 66.6056 319.896 68.5098 319.785C68.4467 319.443 68.437 319.461 68.437 318.764H68.3787C68.5195 305.762 82.9973 308.315 87.1409 307.456C103.529 303.961 109.095 286.752 127.808 291.287C128.268 295.234 127.93 299.785 125.588 316.65C143.237 354.647 162.381 351.362 169.187 372.629C175.364 353.609 197.263 350.579 213.402 316.642C212.341 307.114 210.029 298.776 211.002 290.839L211.094 290.771C223.634 286.588 229.112 292.186 234.104 297.011C249.32 311.719 257.392 302.395 265.007 309.086C268.037 311.773 269.132 315.558 269.132 319.64C303.803 324.676 343.575 335.668 335.665 412.717L335.82 412.885C300.731 412.885 100.676 421.674 1.53283 413.735Z" fill="#386E77"/>
    <path d="M169.853 370.813C176.701 353.587 197.293 349.549 212.833 317.774C212.991 317.599 213.394 316.817 213.895 315.771C213.629 312.815 213.292 309.704 211.931 306.449C211.085 301.025 210.41 295.942 210.98 291.01C214.177 291.946 217.201 293.053 219.271 295.317C222.318 298.64 220.007 304.399 217.091 309.958C211.621 333.828 197.908 351.071 169.853 370.813ZM281.604 353.283C286.361 370.084 289.53 396.886 285.723 413.916C288.9 413.843 290.072 413.759 293.019 413.692C294.337 395.806 291.112 367.242 281.604 353.283ZM230.309 356.321C209.575 368.433 188.715 373.093 169.877 389.177C151.029 373.14 129.967 370.334 109.231 358.236C99.7264 354.415 85.1467 340.912 76.2359 331.402C104.27 373.962 124.337 361.881 169.236 390.566C214.147 361.881 234.338 371.634 262.369 329.077C253.458 338.585 239.817 352.523 230.309 356.321ZM169.111 372.839C162.249 355.603 142.46 349.549 126.92 317.774C126.769 317.599 126.365 316.817 125.864 315.771C126.117 312.815 125.44 309.552 126.813 306.287C127.657 300.85 128.024 296.423 127.45 291.5C124.261 292.43 122.551 293.053 120.482 295.317C117.438 298.64 119.748 304.399 122.663 309.958C128.131 333.828 141.048 353.09 169.111 372.839ZM51.4776 351.387C44.5067 366.601 44.4501 395.806 45.7649 413.694C48.7136 413.76 49.8907 413.844 53.0612 413.917C49.256 396.886 50.2081 368.505 51.4776 351.387ZM169.238 376.122C195.775 368.173 223.989 353.624 247.455 318.077C226.269 346.646 194.789 363.518 169.851 373.868C144.121 364.538 113.315 345.983 95.356 321.024C116.4 355.496 142.714 368.173 169.238 376.122Z" fill="#265E68"/>
    <path d="M335.816 412.884C335.63 412.884 335.402 412.886 335.21 412.886C334.519 334.166 290.686 330.994 266.425 325.892C262.628 325.892 260.655 315.358 257.862 312.549C255.487 310.161 237.186 310.161 231.391 294.464C232.335 295.294 233.222 296.167 234.101 297.011C249.317 311.718 257.389 302.395 265.005 309.085C268.034 311.772 269.129 315.558 269.129 319.64C303.8 324.676 343.572 335.667 335.662 412.716L335.816 412.884ZM1.06875 414.783C1.25335 414.783 1.48166 414.785 1.67759 414.785C9.3836 352.23 27.6325 332.509 72.1846 325.137C77.7726 323.011 74.8304 318.968 77.6285 316.16C80.0039 313.783 93.217 313.731 111.51 294.48C110.567 295.31 106.53 296.167 105.656 297.011C90.4383 311.718 78.9627 307.552 74.7478 309.085C69.5517 311.009 68.7453 315.608 68.7453 319.685C34.0707 324.722 -2.76239 343.932 1.21934 414.615L1.06875 414.783Z" fill="#4D7E86"/>
    <path d="M269.31 319.471C269.31 303.509 254.308 306.687 247.403 305.202C232.168 301.932 232.647 284.288 210.838 290.653C209.908 298.194 211.673 304.802 213.223 316.557C197.229 350.164 175.047 353.95 169.186 372.008C162.778 351.961 143.205 353.979 125.774 316.676C128.199 299.127 128.442 295.053 127.976 291.134C111.344 287.331 107.593 298.13 92.5531 305.345C83.4254 309.623 80.8475 305.771 73.0136 309.608C69.7638 311.176 68.1267 315.452 68.2433 318.947C68.2222 318.963 68.2433 318.963 68.2433 318.963C68.2433 319.188 68.2433 319.395 68.2805 319.604C66.3779 319.737 69.1646 319.724 56.4228 321.784C15.3538 328.422 -2.85793 363.129 1.36022 413.929C20.6131 413.929 2.99726 421.024 297.921 413.804C311.613 413.457 334.838 413.08 335.814 413.08C344.818 337.748 306.789 325.284 269.31 319.471ZM1.62577 413.516C5.80182 355.216 14.6089 332.511 68.0895 320.686C97.2003 369.002 132.827 361.975 168.859 389C136.205 361.844 101.98 365.442 69.0772 320.048C68.708 316.236 70.6965 312.044 74.8013 310.399C77.7094 309.262 80.8249 309.592 83.869 309.608C95.3447 309.696 104.184 300.699 112.68 294.099C116.727 291.395 122.752 291.262 127.577 292.007C127.951 298.28 125.534 307.748 124.724 314.426C123.037 310.709 121.439 306.873 119.842 303.055C140.034 362.359 160.166 348.935 169.166 373.533C167.26 373.004 135.139 361.441 109.542 335.986C104.105 330.602 93.3319 318.731 92.5142 317.624C124.208 360.55 144.458 362.736 169.252 373.797C169.252 373.813 169.286 373.854 169.286 373.875C169.305 373.933 169.396 374.233 169.425 374.289C169.545 374.236 169.681 374.176 169.812 374.142C169.854 374.106 169.888 374.089 169.942 374.089C173.378 372.4 195.955 364.532 213.145 352.714C230.839 340.543 251.019 314.142 249.499 316.055C219.943 346.129 215.373 352.949 169.812 373.813C169.769 373.813 169.735 373.797 169.701 373.779C169.665 373.567 169.597 373.363 169.527 373.153C169.545 373.052 169.579 372.957 169.615 372.864C177.627 350.877 201.151 359.376 220.637 299.101C218.642 304.309 216.545 309.435 214.194 314.461C213.454 305.628 210.888 298.664 211.174 291.392C214.549 290.27 223.711 289.737 226.246 292.269C236.818 301.315 237.677 307.939 254.901 307.939C260.424 307.971 267.646 308.668 268.462 318.801C267.447 320.294 259.894 329.214 252.75 336.303C227.752 361.188 205.389 361.667 170.785 388.131C171.629 388.131 173.384 386.299 174.071 385.835C201.132 366.624 220.574 366.927 245.456 346.569C256.923 337.202 267.958 322.209 269.145 320.302C269.181 320.323 269.241 320.323 269.273 320.323C314.933 328.181 337.801 345.36 335.28 412.732C130.626 411.453 102.842 416.897 1.62577 413.516Z" fill="#0C4049"/>
    <path d="M83.6003 166.052C81.3722 162.08 74.4709 152.321 67.4402 154.713C62.9888 156.227 62.108 161.178 61.3923 165.55C60.4401 171.365 62.1549 182.867 63.6414 187.022C65.068 191.016 69.3622 198.729 72.1651 201.668C75.6141 205.27 79.897 216.766 80.5755 217.959C81.6442 219.84 83.0627 222.673 87.2501 222.318C91.8698 221.923 94.6727 219.322 96.7324 218.884C101.82 217.805 89.3988 176.391 83.6003 166.052Z" fill="#F0C7B1" stroke="#C27B55" stroke-width="3.825"/>
    <path d="M79.0599 190.135C78.8462 189.195 79.0713 187.609 79.2899 186.081C79.4906 184.687 79.6785 183.369 79.5635 182.436C79.1312 178.948 76.6926 172.317 75.0992 168.726C73.2662 164.59 70.3014 159.383 66.5787 158.04C65.0405 157.485 64.0284 158.149 63.4406 158.824C63.0099 159.318 62.9144 159.901 63.0553 159.969C63.1945 160.037 63.5167 159.557 63.9815 159.102C64.362 158.732 64.919 158.413 65.6833 158.479C65.3756 160.217 63.7936 169.624 64.4786 176.04C65.0178 181.084 67.058 184.852 67.377 185.417C67.424 186.011 67.5017 186.592 67.6167 187.158C69.121 194.52 75.666 202.892 77.9443 205.632C78.3636 206.138 78.8041 206.436 78.9126 206.317C79.0194 206.193 78.7604 205.69 78.341 205.183C76.0934 202.464 69.6116 194.122 68.1575 187.018C66.616 179.479 71.9109 168.306 73.093 165.941C73.6937 167.05 74.2054 168.117 74.5989 169.006C74.9065 169.704 75.2498 170.521 75.6012 171.401C74.9065 172.635 70.0407 181.634 71.8154 188.835C72.4728 191.492 75.4344 194.915 77.3969 195.851C78.477 196.369 78.885 197.142 79.3546 198.036C79.8987 199.072 80.5172 200.246 82.3146 201.099C82.6789 201.274 83.0093 201.344 83.3024 201.344C83.8092 201.344 84.1946 201.125 84.4763 200.869C84.5055 201.323 84.5038 201.906 84.4909 202.44C84.4714 203.138 84.5589 203.708 84.7127 203.721C84.8649 203.734 85.0301 203.183 85.0479 202.49C85.0738 201.639 85.069 200.584 84.9313 200.081C84.5297 198.596 83.2991 196.918 81.9956 195.145C80.718 193.393 79.3935 191.591 79.0599 190.135ZM67.3252 183.608C63.8001 172.048 68.3874 162.072 69.1776 160.485C70.554 161.816 71.7684 163.593 72.7562 165.335C72.0372 166.724 67.4726 175.833 67.3252 183.608ZM82.5316 200.516C80.9059 199.747 80.3634 198.711 79.8339 197.71C79.3595 196.805 78.8656 195.871 77.6172 195.273C77.3451 195.142 77.0472 194.945 76.7395 194.718C72.7141 184.576 77.18 180.143 78.2989 179.235C78.6405 180.475 78.8964 181.612 79.0097 182.523C79.1117 183.36 78.9255 184.691 78.7393 185.979C78.5094 187.574 78.2762 189.224 78.5175 190.292C78.8834 191.883 80.2484 193.743 81.5681 195.542C82.7388 197.139 83.942 198.785 84.3549 200.128C84.18 200.393 83.6262 201.036 82.5316 200.516Z" fill="#C27B55"/>
    <path d="M254.812 166.052C257.041 162.08 263.942 152.321 270.972 154.713C275.425 156.227 276.304 161.178 277.021 165.55C277.973 171.365 276.258 182.867 274.772 187.022C273.345 191.016 269.051 198.729 266.245 201.668C262.798 205.27 258.513 216.766 257.836 217.959C256.771 219.84 255.351 222.673 251.163 222.318C246.542 221.923 243.741 219.322 241.679 218.884C236.592 217.805 249.015 176.391 254.812 166.052Z" fill="#F0C7B1" stroke="#C27B55" stroke-width="3.825"/>
    <path d="M256.416 195.142C255.113 196.917 253.884 198.593 253.48 200.078C253.341 200.581 253.338 201.635 253.364 202.487C253.383 203.18 253.547 203.731 253.699 203.718C253.851 203.705 253.939 203.135 253.921 202.437C253.908 201.901 253.908 201.32 253.937 200.866C254.219 201.122 254.604 201.341 255.111 201.341C255.406 201.341 255.734 201.271 256.097 201.096C257.893 200.244 258.513 199.069 259.057 198.032C259.525 197.139 259.936 196.368 261.015 195.848C262.979 194.912 265.939 191.489 266.596 188.832C268.371 181.631 263.507 172.631 262.811 171.397C263.162 170.517 263.507 169.699 263.813 169.003C264.208 168.114 264.718 167.047 265.319 165.937C266.501 168.301 271.796 179.476 270.256 187.015C268.805 194.119 262.322 202.461 260.072 205.18C259.655 205.687 259.396 206.19 259.502 206.313C259.609 206.433 260.05 206.137 260.471 205.628C262.747 202.889 269.294 194.517 270.8 187.154C270.913 186.588 270.989 186.008 271.036 185.414C271.355 184.849 273.399 181.081 273.936 176.037C274.62 169.623 273.038 160.213 272.732 158.476C273.498 158.408 274.05 158.728 274.434 159.099C274.898 159.554 275.221 160.034 275.36 159.966C275.499 159.898 275.404 159.315 274.974 158.821C274.387 158.145 273.375 157.482 271.836 158.037C268.114 159.381 265.147 164.587 263.316 168.722C261.722 172.314 259.284 178.945 258.85 182.433C258.733 183.365 258.923 184.683 259.125 186.078C259.344 187.608 259.567 189.193 259.354 190.132C259.022 191.591 257.697 193.393 256.416 195.142ZM265.657 165.333C266.647 163.593 267.861 161.815 269.237 160.484C270.028 162.071 274.613 172.047 271.091 183.607C270.941 175.833 266.378 166.724 265.657 165.333ZM254.057 200.128C254.468 198.785 255.673 197.139 256.844 195.542C258.165 193.743 259.528 191.883 259.896 190.292C260.136 189.224 259.902 187.574 259.674 185.979C259.488 184.691 259.302 183.36 259.405 182.523C259.515 181.612 259.773 180.473 260.115 179.235C261.233 180.143 265.699 184.576 261.677 194.718C261.368 194.945 261.07 195.144 260.798 195.273C259.549 195.871 259.059 196.805 258.581 197.71C258.053 198.711 257.509 199.747 255.883 200.516C254.787 201.036 254.233 200.393 254.057 200.128Z" fill="#C27B55"/>
    <path d="M240.673 235.801C229.549 253.364 203.314 284.912 184.861 291.768C177.616 294.46 161.23 294.46 153.987 291.768C135.534 284.91 109.302 253.361 98.1761 235.801C87.2413 218.545 74.127 157.613 74.1092 157.525C72.0042 149.492 70.8772 141.061 70.8642 132.365C70.7784 77.6137 114.833 33.1735 169.269 33.0876C223.71 33.0018 267.903 77.3029 267.983 132.055C267.998 140.75 266.9 149.185 264.823 157.224C264.795 157.31 251.645 218.475 240.673 235.801Z" fill="#F0C7B1"/>
    <path d="M185.857 34.4834C229.567 44.6896 262.119 84.1037 262.046 131.166C262.032 139.859 260.906 148.292 258.801 156.324C258.782 156.411 246.856 217.344 235.921 234.6C224.794 252.159 199.749 282.51 181.298 289.368C178.908 290.257 173.158 291.154 169.422 291.154C165.686 291.154 159.938 290.257 157.548 289.368C139.095 282.51 114.05 252.159 102.924 234.6C91.9896 217.344 80.0622 156.411 80.0444 156.324C77.9394 148.292 76.8124 139.859 76.7994 131.166C76.7266 84.1037 109.275 44.6896 152.988 34.4834C106.317 42.3643 70.7855 83.1953 70.8616 132.365C70.8746 141.059 72.0016 149.491 74.1066 157.525C74.126 157.613 87.2387 218.545 98.1735 235.801C109.299 253.362 135.533 284.91 153.984 291.768C157.61 293.116 163.52 293.787 169.427 293.782C175.331 293.784 181.235 293.116 184.858 291.768C203.311 284.91 229.543 253.361 240.671 235.801C251.605 218.545 264.72 157.613 264.736 157.525C266.841 149.492 267.968 141.061 267.981 132.365C268.06 83.1953 232.529 42.3643 185.857 34.4834Z" fill="#E8B9A0"/>
    <path d="M240.673 235.801C229.549 253.364 203.314 284.912 184.861 291.768C177.616 294.46 161.23 294.46 153.987 291.768C135.534 284.91 109.302 253.361 98.1761 235.801C87.2413 218.545 74.127 157.613 74.1092 157.525C72.0042 149.492 70.8772 141.061 70.8642 132.365C70.7784 77.6137 114.833 33.1735 169.269 33.0876C223.71 33.0018 267.903 77.3029 267.983 132.055C267.998 140.75 266.9 149.185 264.823 157.224C264.795 157.31 251.645 218.475 240.673 235.801Z" stroke="#C27B55" stroke-width="3.825"/>
    <path d="M169.743 262.747C165.157 262.981 163.842 258.29 163.842 258.29C163.842 258.29 170.207 259.204 175.162 257.718C175.164 257.72 173.778 262.545 169.743 262.747Z" fill="url(#paint1_linear)"/>
    <path d="M170.209 259.206C166.996 259.368 164.113 259.081 163.931 259.062C163.708 259.039 163.546 258.842 163.569 258.622C163.593 258.398 163.8 258.244 164.012 258.259C164.079 258.264 170.645 258.915 174.923 257.713C175.135 257.661 175.362 257.779 175.423 257.995C175.485 258.21 175.358 258.432 175.143 258.494C173.631 258.918 171.875 259.122 170.209 259.206Z" fill="#C27B55"/>
    <path d="M141.082 242.267C141.082 242.267 161.374 244.673 168.153 244.694C175.525 244.714 199.375 242.267 199.375 242.267C192.48 247.99 184.894 253.492 167.711 253.6C152.341 253.699 148.403 248.117 141.082 242.267Z" fill="white"/>
    <path d="M141.082 242.267C141.082 242.267 161.374 244.673 168.153 244.694C175.525 244.714 199.375 242.267 199.375 242.267C192.48 247.99 184.894 253.492 167.711 253.6C152.341 253.699 148.403 248.117 141.082 242.267Z" stroke="#C27B55" stroke-width="1.9125"/>
    <path d="M107.486 164.906C106.666 161.206 115.891 158.473 128.068 159.966C140.242 161.46 148.694 168.91 147.583 172.667C146.968 174.749 130.356 177.921 124.504 177.277C118.571 176.621 109.465 173.839 107.486 164.906Z" fill="url(#paint2_radial)"/>
    <path d="M137.095 170.274C135.688 175.442 130.356 178.488 125.176 177.068C119.999 175.65 116.944 170.303 118.353 165.133C119.76 159.959 125.102 156.913 130.278 158.335C135.45 159.752 138.506 165.099 137.095 170.274Z" fill="#3C8D8E" stroke="#0C5F60" stroke-width="1.275"/>
    <path d="M135.585 170.394C134.21 174.364 130.068 176.678 126.033 175.573C122.308 174.552 119.957 170.978 120.263 167.2C121.645 167.092 123.157 167.059 124.726 167.136C124.71 167.189 124.682 167.236 124.668 167.291C124.172 169.113 125.327 171.023 127.246 171.55C129.171 172.078 131.133 171.022 131.629 169.2C131.692 168.962 131.726 168.724 131.734 168.489C133.051 168.969 134.343 169.589 135.585 170.394Z" fill="#529C9D"/>
    <path opacity="0.9" d="M129.04 164.804C127.092 164.247 125.106 165.358 124.605 167.297C124.101 169.226 125.272 171.245 127.218 171.804C129.168 172.362 131.153 171.25 131.656 169.32C132.163 167.38 130.988 165.362 129.04 164.804ZM129.464 171.657C128.654 171.909 127.817 171.574 127.595 170.908C127.38 170.243 127.859 169.505 128.675 169.258C129.49 169.006 130.325 169.341 130.549 170.002C130.769 170.667 130.285 171.406 129.464 171.657Z" fill="black"/>
    <path opacity="0.6" d="M122.559 172.817C121.96 173.177 121.066 172.855 120.555 172.094C120.043 171.339 120.119 170.436 120.72 170.074C121.316 169.72 122.218 170.04 122.726 170.797C123.231 171.553 123.158 172.46 122.559 172.817Z" fill="white"/>
    <path opacity="0.8" d="M135.35 167.281C133.98 168.102 131.922 167.364 130.756 165.63C129.59 163.894 129.765 161.821 131.135 161.003C132.502 160.179 134.565 160.918 135.724 162.653C136.888 164.389 136.72 166.459 135.35 167.281Z" fill="white"/>
    <path d="M93.7902 165.678C95.1002 183.326 112.633 203.865 126.995 201.684C143.993 201.855 160.779 188.944 160.779 165.567C160.779 142.189 152.541 122.611 126.569 122.611C107.947 122.609 93.7902 142.301 93.7902 165.678ZM107.486 164.906C106.666 161.206 115.891 158.473 128.068 159.966C140.242 161.46 148.694 168.91 147.583 172.667C146.968 174.749 130.356 177.921 124.504 177.277C118.571 176.621 109.465 173.839 107.486 164.906Z" fill="#F0C7B1"/>
    <path d="M124.504 177.277C130.356 177.921 146.968 174.749 147.583 172.667C148.696 168.91 140.242 161.46 128.068 159.966C117.608 158.683 109.345 160.523 107.737 163.411C109.191 153.048 120.205 144.957 133.624 144.897C148.053 144.837 159.771 154.088 159.81 165.567C159.844 177.044 148.176 186.393 133.748 186.458C119.316 186.518 107.599 177.267 107.56 165.79C107.56 165.62 107.586 165.453 107.591 165.283C109.745 173.909 118.657 176.631 124.504 177.277Z" fill="url(#paint3_radial)"/>
    <path d="M107.486 164.906C106.666 161.206 115.891 158.473 128.068 159.966C140.242 161.46 148.694 168.91 147.583 172.667C146.968 174.749 130.356 177.921 124.504 177.277C118.571 176.621 109.465 173.839 107.486 164.906Z" fill="url(#paint4_radial)"/>
    <path d="M108.127 156.638C114.941 153.435 123.267 153.14 130.534 155.011C134.427 155.919 138.574 157.091 141.971 159.282C145.12 161.12 147.679 163.33 150.071 166.067C147.897 163.313 145.58 161.018 142.585 159.153C138.899 156.86 134.863 155.438 130.661 154.431C123.235 152.608 114.918 153.022 108.127 156.638Z" fill="#C27B55"/>
    <path d="M109.133 157.614C110.558 157.044 115.715 155.995 117.967 155.888C120.699 155.755 126.182 156.091 128.873 156.575C134.336 157.559 143.853 160.595 147.782 168.208C148.99 170.547 147.902 172.184 147.583 172.539C148.069 168.611 139.749 161.616 128.068 160.226C115.891 158.779 106.666 161.429 107.486 165.016C109.465 173.676 118.571 176.372 124.504 177.007C131.141 177.717 143.423 174.514 145.046 174.168C141.809 175.802 132.863 177.56 129.231 177.897C128.026 178.01 125.604 178.065 124.396 178.035C114.763 177.779 107.93 172.894 105.403 166.279C103.781 162.027 105.556 159.043 109.133 157.614Z" fill="#F0C7B1"/>
    <path d="M230.706 164.906C231.525 161.206 222.3 158.473 210.124 159.966C197.95 161.46 189.498 168.91 190.608 172.667C191.224 174.749 207.836 177.921 213.687 177.277C219.62 176.621 228.727 173.839 230.706 164.906Z" fill="url(#paint5_radial)"/>
    <path d="M220.487 170.274C219.08 175.442 213.747 178.488 208.566 177.068C203.391 175.65 200.334 170.303 201.742 165.133C203.149 159.959 208.493 156.913 213.668 158.335C218.842 159.752 221.895 165.099 220.487 170.274Z" fill="#3C8D8E" stroke="#0C5F60" stroke-width="1.275"/>
    <path d="M218.976 170.394C217.601 174.364 213.458 176.678 209.424 175.573C205.7 174.552 203.347 170.978 203.655 167.2C205.037 167.092 206.548 167.059 208.117 167.136C208.101 167.189 208.074 167.236 208.059 167.291C207.563 169.113 208.718 171.023 210.638 171.55C212.564 172.078 214.526 171.022 215.022 169.2C215.083 168.962 215.119 168.724 215.127 168.489C216.442 168.969 217.736 169.589 218.976 170.394Z" fill="#529C9D"/>
    <path opacity="0.9" d="M212.431 164.804C210.485 164.247 208.498 165.358 207.997 167.297C207.492 169.226 208.665 171.245 210.609 171.804C212.559 172.362 214.546 171.25 215.049 169.32C215.553 167.38 214.379 165.362 212.431 164.804ZM212.855 171.657C212.046 171.909 211.207 171.574 210.987 170.908C210.771 170.243 211.25 169.505 212.067 169.258C212.881 169.006 213.717 169.341 213.94 170.002C214.16 170.667 213.676 171.406 212.855 171.657Z" fill="black"/>
    <path opacity="0.6" d="M205.952 172.817C205.353 173.177 204.458 172.855 203.948 172.094C203.436 171.339 203.51 170.436 204.113 170.074C204.707 169.72 205.612 170.04 206.119 170.797C206.624 171.553 206.55 172.46 205.952 172.817Z" fill="white"/>
    <path opacity="0.8" d="M218.741 167.281C217.371 168.102 215.315 167.364 214.147 165.63C212.981 163.894 213.156 161.821 214.526 161.003C215.894 160.179 217.954 160.918 219.115 162.653C220.279 164.389 220.113 166.459 218.741 167.281Z" fill="white"/>
    <path d="M211.621 122.609C185.649 122.609 177.411 142.188 177.411 165.565C177.411 188.942 194.197 201.855 211.195 201.682C225.557 203.863 243.09 183.325 244.4 165.677C244.401 142.301 230.243 122.609 211.621 122.609ZM213.687 177.277C207.835 177.921 191.224 174.749 190.608 172.667C189.496 168.91 197.95 161.46 210.124 159.966C222.3 158.473 231.525 161.207 230.706 164.906C228.727 173.839 219.62 176.621 213.687 177.277Z" fill="#F0C7B1"/>
    <path d="M213.687 177.277C207.835 177.921 191.224 174.749 190.608 172.667C189.496 168.91 197.95 161.46 210.123 159.966C220.584 158.683 228.847 160.524 230.455 163.411C229.001 153.048 217.987 144.957 204.568 144.897C190.139 144.837 178.42 154.088 178.381 165.567C178.347 177.044 190.016 186.393 204.443 186.458C218.876 186.518 230.592 177.267 230.631 165.79C230.631 165.62 230.605 165.453 230.601 165.283C228.445 173.909 219.533 176.631 213.687 177.277Z" fill="url(#paint6_radial)"/>
    <path d="M230.706 164.906C231.525 161.206 222.3 158.473 210.124 159.966C197.95 161.46 189.498 168.91 190.608 172.667C191.224 174.749 207.836 177.921 213.687 177.277C219.62 176.621 228.727 173.839 230.706 164.906Z" fill="url(#paint7_radial)"/>
    <path d="M230.063 156.638C223.249 153.435 214.923 153.14 207.656 155.011C203.763 155.919 199.616 157.091 196.219 159.282C193.07 161.12 190.511 163.33 188.12 166.067C190.293 163.313 192.61 161.018 195.605 159.153C199.291 156.86 203.328 155.438 207.529 154.431C214.957 152.608 223.273 153.022 230.063 156.638Z" fill="#C27B55"/>
    <path d="M229.059 157.614C227.634 157.044 222.477 155.995 220.224 155.888C217.493 155.755 212.01 156.091 209.319 156.575C203.855 157.559 194.339 160.595 190.409 168.208C189.201 170.547 190.289 172.184 190.608 172.539C190.122 168.611 198.442 161.616 210.123 160.226C222.3 158.779 231.525 161.429 230.706 165.016C228.727 173.676 219.62 176.372 213.687 177.007C207.05 177.717 194.768 174.514 193.146 174.168C196.383 175.802 205.329 177.56 208.961 177.897C210.166 178.01 212.588 178.065 213.796 178.035C223.429 177.779 230.262 172.894 232.788 166.279C234.411 162.027 232.636 159.043 229.059 157.614Z" fill="#F0C7B1"/>
    <path d="M235.808 215.833C235.865 252.463 206.189 282.212 169.519 282.263C132.856 282.322 103.085 252.674 103.028 216.035C102.971 179.408 132.647 149.542 169.315 149.484C205.98 149.427 235.755 179.197 235.808 215.833Z" fill="url(#paint8_radial)"/>
    <path d="M230.141 118.718C230.141 152.255 202.955 179.44 169.42 179.44C135.884 179.44 108.697 152.255 108.697 118.718C108.697 85.1821 135.884 57.9966 169.42 57.9966C202.955 57.9966 230.141 85.1821 230.141 118.718Z" fill="url(#paint9_radial)"/>
    <path d="M92.4851 150.894C104.589 135.701 125.417 138.229 142.484 140.671C146.825 141.292 151.295 141.759 155.552 142.834C158.602 143.603 161 147.08 158.549 149.887C157.402 151.223 154.901 150.975 153.356 150.943C132.919 150.53 109.819 138.778 92.4851 150.894Z" fill="#2A232B"/>
    <path d="M246.458 150.279C242.954 147.935 239.246 146.28 235.054 145.601C219.675 143.108 190.385 153.357 182.685 151.188C177.97 149.857 178.924 145.133 181.009 143.969C182.264 143.268 182.612 143.286 193.816 141.359C212.854 138.088 234.169 135.487 246.458 150.279Z" fill="#2A232B"/>
    <path d="M155.032 218.302C153.61 221.644 164.64 225.252 168.826 225.474C173.36 225.712 186.065 220.778 183.911 217.391C181.646 213.836 173.154 216.927 169.49 216.927C165.844 216.926 156.936 213.843 155.032 218.302Z" fill="#E1AC8F"/>
    <path d="M172.426 220.827C172.053 219.598 175.464 218.262 176.728 218.084C178.511 217.824 182.169 219.382 181.842 220.661C181.544 221.792 178.364 219.798 177.211 219.967C176.022 220.14 172.779 221.978 172.426 220.827ZM161.281 220.427C162.848 220.427 165.173 221.435 165.601 220.546C166.111 219.486 162.137 218.181 160.97 218.325C160.005 218.438 156.544 220.454 157.02 221.303C157.464 222.082 159.214 220.427 161.281 220.427Z" fill="#C27B55"/>
    <path opacity="0.2" d="M169.563 212.635C170.546 212.635 172.384 211.437 172.465 209.024C172.79 199.295 170.917 170.432 169.563 170.534C168.3 170.63 165.892 199.093 166.409 209.024C166.537 211.456 168.454 212.635 169.563 212.635Z" fill="#FFF5EF"/>
    <path d="M80.3181 184.939C76.3947 170.666 74.2815 158.168 71.3475 145.13L71.4818 145.099C70.371 142.364 66.3618 120.713 66.3245 120.48C62.2359 91.7061 74.4095 90.0642 74.1617 78.0591C79.2866 80.6256 84.2691 79.3528 88.7657 75.8488C84.0408 73.4215 85.5321 73.0378 79.2575 69.2179C83.6797 68.4537 86.2624 69.4851 90.019 69.9531C86.808 66.7421 80.5059 60.1923 76.4108 61.0602L76.1437 60.487C82.0717 55.8608 89.985 65.4921 97.1194 62.8834C97.3348 36.3715 136.09 30.866 145.522 26.9264C158.079 22.148 171.197 11.6391 180.422 10.6999C175.2 15.9479 172.002 24.3809 171.764 30.7106C179.371 23.4466 179.908 23.6588 191.439 10.8521C191.439 21.157 188.584 22.4508 184.879 28.4987C194.937 21.9083 207.476 3.41814 226.787 0.590935L226.999 1.19006C220.04 5.28999 214.654 12.2074 210.972 21.7675C214.627 17.3534 219.799 12.5653 225.523 11.699L225.738 12.2965C222.151 14.442 215.125 21.5942 213.518 33.5702C220.611 25.6472 231.896 19.0811 239.642 16.6004L239.945 17.1607C232.834 22.9463 229.982 33.0747 228.374 41.6859C233.361 34.2697 236.263 32.5792 242.538 29.4638C240.519 32.4837 240.65 31.9558 239.043 35.238C242.923 45.1527 255.743 45.5381 257.934 62.8608C260.573 60.555 261.621 59.9769 264.655 57.8541L265.112 58.2945C262.832 61.8358 260.952 68.1071 259.7 72.3042C264.202 68.8666 271.153 66.3341 276.048 64.5675L276.39 65.0986C272.259 69.2973 267.244 75.6982 266.412 82.6415C268.031 81.6829 268.109 81.793 270.217 80.2677C270.217 85.2566 270.387 84.6202 270.423 86.9147C272.458 85.0931 272.771 84.8388 274.108 83.3831C273.812 135.785 271.121 125.341 263.879 161.862C262.61 168.279 260.364 179.484 258.923 184.866L249.128 186.549C252.156 150.287 248.977 158.192 251.18 135.374C254.438 101.728 227.208 74.1469 191.227 83.1743C183.947 85.0008 154.891 84.9992 147.614 83.1743C107.866 73.1948 93.5457 96.4197 89.279 137.06C87.1886 157.006 86.6769 150.274 89.7114 186.549L80.3181 184.939Z" fill="#2A232B"/>
    <path d="M270.421 86.9163C270.387 84.6202 270.215 85.2582 270.215 80.2693C268.107 81.793 268.03 81.6845 266.41 82.6431C267.243 75.6998 272.257 69.2989 276.388 65.1002L276.046 64.5691C271.153 66.3373 264.202 68.8682 259.698 72.3059C260.949 68.1088 262.83 61.8374 265.11 58.2961L264.653 57.8557C261.619 59.9785 260.571 60.5566 257.932 62.8624C255.741 45.5413 242.921 45.1543 239.042 35.2396C240.648 31.9574 240.517 32.4853 242.536 29.4654C236.261 32.5808 233.36 34.2713 228.372 41.6875C229.98 33.0763 232.834 22.9479 239.944 17.1623L239.641 16.6021C231.894 19.0828 220.61 25.6488 213.516 33.5718C215.124 21.5958 222.15 14.4436 225.736 12.2981L225.521 11.7006C219.797 12.5669 214.625 17.3566 210.97 21.7691C214.653 12.2091 220.04 5.29162 226.998 1.19168L226.786 0.59256C207.474 3.41977 194.935 21.91 184.878 28.5003C188.583 22.4524 191.437 21.157 191.437 10.8537C179.907 23.6604 179.369 23.4483 171.762 30.7122C171.998 24.3826 175.198 15.9479 180.42 10.7015C171.197 11.6407 158.079 22.148 145.52 26.928C136.09 30.866 97.3347 36.3715 97.1194 62.8851C89.985 65.4937 82.0717 55.8624 76.1436 60.4886L76.4108 61.0618C80.5059 60.1923 86.808 66.7421 90.019 69.9547C86.2639 69.4867 83.6796 68.4553 79.2575 69.2196C85.532 73.0394 84.0407 73.4231 88.7657 75.8504C84.269 79.3544 79.2866 80.6272 74.1617 78.0607C74.4094 90.0674 62.2343 91.7093 66.3245 120.482C66.3618 120.715 70.371 142.366 71.4818 145.101L71.3474 145.132C74.2815 158.17 76.3946 170.669 80.3181 184.941L80.3602 184.946C79.2898 158.322 62.516 120.474 72.3594 96.2303C73.6435 93.0646 78.6114 84.7158 78.6114 84.7158C78.6114 84.7158 94.1999 82.669 94.9334 76.6195C94.9334 76.6195 91.6949 75.0003 90.0757 73.381C93.3142 75.0003 93.3142 70.1425 96.5527 71.7618C96.5527 68.5233 91.6949 70.1425 91.6949 66.904C94.9334 66.904 98.1719 66.904 101.41 70.1425C99.7911 62.0463 101.41 53.95 107.887 49.0923C124.08 36.1383 145.13 37.7576 161.323 24.8036C159.703 32.8998 158.084 40.9961 158.084 49.0923C167.8 44.2346 171.038 34.5191 179.134 28.0421C180.754 34.5191 177.515 42.6153 177.515 49.0923C182.373 37.7576 188.85 26.4228 203.423 23.1843C196.946 29.6613 196.946 39.3768 196.946 47.4731C196.946 40.9961 203.423 37.7576 205.042 32.8998C205.042 39.3768 205.042 45.8538 205.042 52.3308C208.281 42.6153 214.758 37.7576 222.854 34.5191C216.377 40.9961 217.996 47.4731 216.377 55.5693C221.235 50.7116 227.712 49.0923 232.57 44.2346C237.427 53.95 234.189 62.0463 234.189 71.7618C235.808 63.6655 243.904 58.8078 248.762 52.3308C250.381 60.427 250.381 68.5233 248.762 76.6195C250.381 71.7618 253.62 68.5233 255.239 63.6655C255.239 71.5351 254.157 78.3392 252.033 84.9457C254.065 82.5946 257.383 81.5275 258.478 78.2388C258.478 85.242 258.478 91.0373 258.478 97.7135C259.417 95.7833 262.186 95.1097 263.335 92.812C261.952 98.3385 262.924 102.694 263.24 107.874C263.841 104.701 266.896 102.754 268 99.8315C268.065 98.5717 268.132 97.3103 268.191 96.0505C268.562 97.5273 268.41 98.7449 268 99.8315C266.524 128.607 263.802 157.341 257.87 185.049L258.92 184.87C260.361 179.487 262.605 168.282 263.876 161.865C271.119 125.344 273.81 135.788 274.105 83.3864C272.769 84.8421 272.457 85.0963 270.421 86.9163Z" fill="#3A353A"/>
    <path d="M279.17 63.1717C271.156 64.5221 265.559 67.1194 261.277 70.0535C261.901 68.4261 264.828 59.2531 267.981 55.3993C263.139 57.5577 260.338 59.8733 258.719 61.0828C258.719 59.4118 258.074 57.4816 257.763 56.4842C257.457 55.6503 257.2 54.6755 255.705 52.2417C247.332 40.4277 246.809 45.3696 239.952 36.3245C241.202 33.3921 243.01 30.5406 245.279 28.1797C238.951 29.0784 235.62 31.5396 231.613 35.4825C231.548 35.5473 231.499 35.6121 231.451 35.6768C233.962 25.7573 238.883 17.1575 248.55 13.9303C236.593 13.4964 221.792 22.3375 214.351 31.1591C217.564 20.8267 221.874 15.9042 228.279 11.3233C223.67 10.6416 219.154 12.5248 215.582 15.501C219.697 8.38114 225.811 2.71054 230.724 0.0695408C230.026 0.0533483 229.202 0.00477087 228.295 0.0695408C227.037 -0.25269 219.423 0.986034 216.701 2.15837C203.214 7.42417 193.402 19.6819 189.19 23.662C192.292 18.6456 192.445 15.0832 191.878 9.866C190.817 10.7776 173.07 27.7668 172.852 27.9854C174.11 21.008 176.487 16.7527 180.98 10.5137C172.97 9.01427 152.915 22.1998 140.483 25.7184C127.458 29.2468 95.1374 36.6046 96.6174 62.4754C89.6627 63.8016 79.4793 52.6352 74.1422 62.0058C78.4268 59.4636 84.1022 65.5844 88.0516 69.0819C86.4323 68.818 81.0192 67.5469 78.4009 69.2924C81.4677 70.4826 84.1492 74.0401 87.9382 75.9314C87.9868 75.9475 88.0354 75.9637 88.084 75.9961C84.6204 77.8226 80.5269 79.2897 76.7654 78.2469C76.1987 78.085 75.8263 77.9878 75.8263 77.9716C75.3891 77.7773 74.9195 77.583 74.4175 77.3563H74.4013L74.3851 77.3401C74.1746 77.2267 73.9641 77.1134 73.7374 77.0001C74.8628 86.0808 61.0798 93.4435 62.597 112.656C63.2204 124.478 70.6107 160.437 79.9003 184.819L80.6824 185.053C76.8091 171.085 74.5665 157.946 71.6648 145.055C71.4122 145.055 66.6888 120.695 66.6451 120.427C62.5873 91.8777 74.7316 89.8067 74.4985 78.5853C79.5521 81.1129 85.0754 79.2913 89.3632 75.784C84.3144 73.2725 85.3912 72.5649 80.1658 69.388C83.6683 68.7824 87.9431 70.1701 90.8853 70.3595C87.0865 66.5608 80.6856 59.8182 76.3444 60.7412C82.1219 56.2316 90.1032 66.0377 97.4432 63.1053C97.4432 36.5771 135.857 31.3113 145.648 27.2227C157.422 22.7439 172.015 11.8787 179.554 11.1112C175.603 15.0913 171.425 23.9049 171.425 31.4813C179.253 23.9713 180.023 24.0085 191.115 11.6941C191.115 21.4323 187.477 23.1714 183.94 29.4573C194.326 23.4693 206.9 3.82782 226.834 0.909929C218.489 5.82759 213.176 14.3902 209.978 23.5308C213.786 18.5776 219.369 12.9571 225.571 12.018C222.318 13.9643 214.461 21.3805 213.071 34.5741C220.106 26.2933 231.831 19.4406 239.74 16.9081C232.283 22.9771 229.428 33.7013 227.773 43.1723C230.505 39.006 233.209 35.2429 237.44 32.5824C237.458 32.5662 237.489 32.5501 237.505 32.5501C239.171 31.4182 238.736 31.7259 241.587 30.2993C240.504 31.9185 240.403 31.708 238.689 35.2218C242.617 45.5478 255.728 45.6061 257.681 63.5101C260.688 60.8432 261.633 60.3623 264.838 58.118C262.341 61.9945 260.33 69.0771 259.09 73.2094C263.794 69.1856 272.495 66.198 276.156 64.8703C271.299 69.809 266.582 76.3605 266.02 83.2649C267.014 82.5962 268.277 82.0667 269.89 80.9008C269.89 85.3117 270.1 84.7223 270.1 87.6369C270.952 86.858 272.886 85.1918 273.778 84.2203C273.46 135.576 270.734 125.615 263.559 161.798C260.874 175.361 259.457 181.634 258.57 184.926L259.263 184.785C265.066 167.377 276.649 128.044 276.126 107.683C276.072 100.073 274.411 84.2041 274.328 82.5848C274.294 82.614 270.954 85.7748 270.912 85.7748C270.912 84.9473 270.572 81.4271 270.572 79.5083C270 79.9471 268.799 80.768 267.187 81.7104C269.42 74.9695 272.819 70.7805 279.17 63.1717Z" fill="black"/>
    <defs>
        <linearGradient id="paint0_linear" x1="169.419" y1="308.172" x2="169.419" y2="238.544" gradientUnits="userSpaceOnUse">
            <stop stop-color="#E1AC8F" stop-opacity="0.8"/>
            <stop offset="0.7" stop-color="#C27B55"/>
        </linearGradient>
        <linearGradient id="paint1_linear" x1="169.419" y1="261.214" x2="169.419" y2="256.356" gradientUnits="userSpaceOnUse">
            <stop offset="0.1" stop-color="#E8B9A0"/>
            <stop offset="1" stop-color="#E1AC8F"/>
        </linearGradient>
        <radialGradient id="paint2_radial" cx="0" cy="0" r="1" gradientUnits="userSpaceOnUse" gradientTransform="translate(126.094 168.052) rotate(174.019) scale(24.4768)">
            <stop stop-color="white"/>
            <stop offset="0.315" stop-color="#FCFDFD"/>
            <stop offset="0.504" stop-color="#F4F7F8"/>
            <stop offset="0.66" stop-color="#E5ECEF"/>
            <stop offset="0.76" stop-color="#D8E2E7"/>
        </radialGradient>
        <radialGradient id="paint3_radial" cx="0" cy="0" r="1" gradientUnits="userSpaceOnUse" gradientTransform="translate(133.814 164.863) rotate(1.19182) scale(25.9133 20.7295)">
            <stop stop-color="#E1AC8F"/>
            <stop offset="0.7" stop-color="#E1AC8F" stop-opacity="0.3"/>
            <stop offset="1" stop-color="#F0C7B1" stop-opacity="0"/>
        </radialGradient>
        <radialGradient id="paint4_radial" cx="0" cy="0" r="1" gradientUnits="userSpaceOnUse" gradientTransform="translate(120.141 210.805) scale(49.413 49.4131)">
            <stop offset="0.95" stop-opacity="0"/>
            <stop offset="1" stop-opacity="0.2"/>
        </radialGradient>
        <radialGradient id="paint5_radial" cx="0" cy="0" r="1" gradientUnits="userSpaceOnUse" gradientTransform="translate(212.099 168.051) rotate(5.98142) scale(24.4752)">
            <stop stop-color="white"/>
            <stop offset="0.316" stop-color="#FCFDFD"/>
            <stop offset="0.505" stop-color="#F4F7F8"/>
            <stop offset="0.661" stop-color="#E5ECEF"/>
            <stop offset="0.76" stop-color="#D8E2E7"/>
        </radialGradient>
        <radialGradient id="paint6_radial" cx="0" cy="0" r="1" gradientUnits="userSpaceOnUse" gradientTransform="translate(204.376 164.863) rotate(178.808) scale(25.9133 20.7295)">
            <stop stop-color="#E1AC8F"/>
            <stop offset="0.7" stop-color="#E1AC8F" stop-opacity="0.3"/>
            <stop offset="1" stop-color="#F0C7B1" stop-opacity="0"/>
        </radialGradient>
        <radialGradient id="paint7_radial" cx="0" cy="0" r="1" gradientUnits="userSpaceOnUse" gradientTransform="translate(218.052 210.805) rotate(180) scale(49.413)">
            <stop offset="0.95" stop-opacity="0"/>
            <stop offset="1" stop-opacity="0.2"/>
        </radialGradient>
        <radialGradient id="paint8_radial" cx="0" cy="0" r="1" gradientUnits="userSpaceOnUse" gradientTransform="translate(169.419 215.875) scale(66.3892)">
            <stop stop-color="#FFE4D6" stop-opacity="0.5"/>
            <stop offset="0.9" stop-color="#F0C7B1" stop-opacity="0"/>
        </radialGradient>
        <radialGradient id="paint9_radial" cx="0" cy="0" r="1" gradientUnits="userSpaceOnUse" gradientTransform="translate(169.419 118.72) scale(59.9122)">
            <stop stop-color="#FFE4D6" stop-opacity="0.5"/>
            <stop offset="0.9" stop-color="#F0C7B1" stop-opacity="0"/>
        </radialGradient>
    </defs>
</svg>